<svg xmlns="http://www.w3.org/2000/svg" shape-rendering="geometricPrecision" text-rendering="geometricPrecision" image-rendering="optimizeQuality" fill-rule="evenodd" clip-rule="evenodd" viewBox="0 0 512 512"><path fill="#fff" d="M255.997 0C397.384 0 512 114.617 512 256.003 512 397.389 397.384 512 255.997 512 114.611 512 0 397.389 0 256.003 0 114.617 114.611 0 255.997 0zm-83.046 277.729l83.168-83.184 82.919 83.184v81.611h-60.57v-57.645h-45.449v57.645h-60.068v-81.611zm83.046-143.577L137.827 249.9l28.828 15.136 88.575-92.995 90.11 93.018 28.833-15.137-118.176-115.77zm0-96.257c120.461 0 218.109 97.647 218.109 218.108 0 120.455-97.648 218.108-218.109 218.108-120.455 0-218.108-97.653-218.108-218.108 0-120.461 97.653-218.108 218.108-218.108z"/></svg>